<svg xmlns="http://www.w3.org/2000/svg" version="1.1" xmlns:xlink="http://www.w3.org/1999/xlink" xmlns:svgjs="http://svgjs.dev/svgjs" viewBox="0 0 7.073910094777065 4.385896365924602"><g transform="matrix(1,0,0,1,0.4615155942635325,2.65143155291107)"><rect width="7.073910094777065" height="7.073910094777065" x="-0.4615155942635325" y="-3.995438417337301" fill="#ffffff"></rect><g><path d=" M 0.10693359375 0.010986328125 L 0.298828125 0.010986328125 Q 0.34130859375 0.010986328125 0.38671875 0.013916015625 Q 0.43212890625 0.016845703125 0.475341796875 0.0263671875 Q 0.5185546875 0.035888671875 0.557373046875 0.0545654296875 Q 0.59619140625 0.0732421875 0.6251220703125 0.104736328125 Q 0.654052734375 0.13623046875 0.6712646484375 0.1827392578125 Q 0.6884765625 0.229248046875 0.6884765625 0.29443359375 L 0.6884765625 0.355224609375 Q 0.6884765625 0.405029296875 0.6741943359375 0.44677734375 Q 0.659912109375 0.488525390625 0.636474609375 0.5203857421875 Q 0.613037109375 0.55224609375 0.5830078125 0.5731201171875 Q 0.552978515625 0.593994140625 0.521484375 0.601318359375 L 0.521484375 0.607177734375 Q 0.614501953125 0.6240234375 0.6617431640625 0.6954345703125 Q 0.708984375 0.766845703125 0.708984375 0.878173828125 L 0.708984375 0.94189453125 Q 0.708984375 1.010009765625 0.6939697265625 1.0601806640625 Q 0.678955078125 1.1103515625 0.65185546875 1.1458740234375 Q 0.624755859375 1.181396484375 0.58740234375 1.2041015625 Q 0.550048828125 1.226806640625 0.50537109375 1.2396240234375 Q 0.460693359375 1.25244140625 0.41015625 1.2572021484375 Q 0.359619140625 1.261962890625 0.30615234375 1.261962890625 L 0.10693359375 1.261962890625 L 0.10693359375 0.010986328125 M 0.32958984375 0.54638671875 Q 0.36767578125 0.54638671875 0.399169921875 0.5372314453125 Q 0.4306640625 0.528076171875 0.4530029296875 0.5086669921875 Q 0.475341796875 0.4892578125 0.4874267578125 0.4581298828125 Q 0.49951171875 0.427001953125 0.49951171875 0.383056640625 L 0.49951171875 0.331787109375 Q 0.49951171875 0.287841796875 0.49072265625 0.254150390625 Q 0.48193359375 0.220458984375 0.4617919921875 0.197021484375 Q 0.441650390625 0.173583984375 0.4090576171875 0.1614990234375 Q 0.37646484375 0.1494140625 0.32958984375 0.1494140625 L 0.29296875 0.1494140625 L 0.29296875 0.54638671875 L 0.32958984375 0.54638671875 M 0.34716796875 1.130126953125 Q 0.38525390625 1.130126953125 0.4163818359375 1.1202392578125 Q 0.447509765625 1.1103515625 0.4698486328125 1.0894775390625 Q 0.4921875 1.068603515625 0.5042724609375 1.036376953125 Q 0.516357421875 1.004150390625 0.516357421875 0.960205078125 L 0.516357421875 0.86279296875 Q 0.516357421875 0.81884765625 0.507568359375 0.7847900390625 Q 0.498779296875 0.750732421875 0.4786376953125 0.7276611328125 Q 0.45849609375 0.70458984375 0.42626953125 0.6925048828125 Q 0.39404296875 0.680419921875 0.34716796875 0.680419921875 L 0.29296875 0.680419921875 L 0.29296875 1.130126953125 L 0.34716796875 1.130126953125 M 1.018798828125 0.010986328125 L 1.237060546875 0.010986328125 L 1.468505859375 1.261962890625 L 1.276611328125 1.261962890625 L 1.2421875 1.037841796875 L 1.013671875 1.037841796875 L 0.980712890625 1.261962890625 L 0.7880859375 1.261962890625 L 1.018798828125 0.010986328125 M 1.22021484375 0.89501953125 L 1.13232421875 0.271728515625 L 1.124267578125 0.271728515625 L 1.03564453125 0.89501953125 L 1.22021484375 0.89501953125 M 1.5966796875 0.010986328125 L 1.802490234375 0.010986328125 Q 1.837646484375 0.010986328125 1.8797607421875 0.013916015625 Q 1.921875 0.016845703125 1.9639892578125 0.0281982421875 Q 2.006103515625 0.03955078125 2.0452880859375 0.062255859375 Q 2.08447265625 0.0849609375 2.1148681640625 0.12451171875 Q 2.145263671875 0.1640625 2.16357421875 0.2237548828125 Q 2.181884765625 0.283447265625 2.181884765625 0.368408203125 L 2.181884765625 0.39990234375 Q 2.181884765625 0.542724609375 2.140869140625 0.6324462890625 Q 2.099853515625 0.72216796875 2.02001953125 0.76171875 L 2.220703125 1.261962890625 L 2.02001953125 1.261962890625 L 1.853759765625 0.7939453125 L 1.78271484375 0.7939453125 L 1.78271484375 1.261962890625 L 1.5966796875 1.261962890625 L 1.5966796875 0.010986328125 M 1.811279296875 0.656982421875 Q 1.861083984375 0.656982421875 1.8955078125 0.64599609375 Q 1.929931640625 0.635009765625 1.951171875 0.6090087890625 Q 1.972412109375 0.5830078125 1.98193359375 0.5401611328125 Q 1.991455078125 0.497314453125 1.991455078125 0.434326171875 L 1.991455078125 0.33544921875 Q 1.991455078125 0.287109375 1.982666015625 0.251953125 Q 1.973876953125 0.216796875 1.9530029296875 0.194091796875 Q 1.93212890625 0.17138671875 1.897705078125 0.160400390625 Q 1.86328125 0.1494140625 1.811279296875 0.1494140625 L 1.78271484375 0.1494140625 L 1.78271484375 0.656982421875 L 1.811279296875 0.656982421875 M 2.37158203125 0.010986328125 L 2.561279296875 0.010986328125 L 2.561279296875 1.261962890625 L 2.37158203125 1.261962890625 L 2.37158203125 0.010986328125 M 2.782470703125 0.010986328125 L 2.97216796875 0.010986328125 L 2.97216796875 1.112548828125 L 3.230712890625 1.112548828125 L 3.230712890625 1.261962890625 L 2.782470703125 1.261962890625 L 2.782470703125 0.010986328125 M 3.635009765625 1.27294921875 Q 3.60498046875 1.27294921875 3.56982421875 1.2681884765625 Q 3.53466796875 1.263427734375 3.500244140625 1.248046875 Q 3.4658203125 1.232666015625 3.4339599609375 1.2044677734375 Q 3.402099609375 1.17626953125 3.3775634765625 1.130126953125 Q 3.35302734375 1.083984375 3.33837890625 1.0162353515625 Q 3.32373046875 0.948486328125 3.32373046875 0.854736328125 L 3.32373046875 0.41162109375 Q 3.32373046875 0.317138671875 3.3387451171875 0.2501220703125 Q 3.353759765625 0.18310546875 3.378662109375 0.1373291015625 Q 3.403564453125 0.091552734375 3.4354248046875 0.064453125 Q 3.46728515625 0.037353515625 3.5020751953125 0.0230712890625 Q 3.536865234375 0.0087890625 3.5712890625 0.00439453125 Q 3.605712890625 0 3.635009765625 0 Q 3.662841796875 0 3.6968994140625 0.0040283203125 Q 3.73095703125 0.008056640625 3.7650146484375 0.0216064453125 Q 3.799072265625 0.03515625 3.831298828125 0.0618896484375 Q 3.863525390625 0.088623046875 3.888427734375 0.1343994140625 Q 3.913330078125 0.18017578125 3.9283447265625 0.2479248046875 Q 3.943359375 0.315673828125 3.943359375 0.41162109375 L 3.943359375 0.854736328125 Q 3.943359375 0.94775390625 3.927978515625 1.0147705078125 Q 3.91259765625 1.081787109375 3.8876953125 1.1282958984375 Q 3.86279296875 1.1748046875 3.8302001953125 1.2030029296875 Q 3.797607421875 1.231201171875 3.7635498046875 1.2469482421875 Q 3.7294921875 1.2626953125 3.69580078125 1.267822265625 Q 3.662109375 1.27294921875 3.635009765625 1.27294921875 M 3.635009765625 1.130126953125 Q 3.662841796875 1.130126953125 3.6837158203125 1.12060546875 Q 3.70458984375 1.111083984375 3.7181396484375 1.087646484375 Q 3.731689453125 1.064208984375 3.7386474609375 1.0257568359375 Q 3.74560546875 0.9873046875 3.74560546875 0.9287109375 L 3.74560546875 0.359619140625 Q 3.74560546875 0.299560546875 3.7386474609375 0.25927734375 Q 3.731689453125 0.218994140625 3.7181396484375 0.1944580078125 Q 3.70458984375 0.169921875 3.6837158203125 0.15966796875 Q 3.662841796875 0.1494140625 3.635009765625 0.1494140625 Q 3.6064453125 0.1494140625 3.585205078125 0.15966796875 Q 3.56396484375 0.169921875 3.550048828125 0.1944580078125 Q 3.5361328125 0.218994140625 3.5291748046875 0.25927734375 Q 3.522216796875 0.299560546875 3.522216796875 0.359619140625 L 3.522216796875 0.9287109375 Q 3.522216796875 0.9873046875 3.5291748046875 1.0257568359375 Q 3.5361328125 1.064208984375 3.550048828125 1.087646484375 Q 3.56396484375 1.111083984375 3.585205078125 1.12060546875 Q 3.6064453125 1.130126953125 3.635009765625 1.130126953125 M 4.399658203125 1.27294921875 Q 4.370361328125 1.27294921875 4.3363037109375 1.2681884765625 Q 4.30224609375 1.263427734375 4.2681884765625 1.248046875 Q 4.234130859375 1.232666015625 4.2030029296875 1.2044677734375 Q 4.171875 1.17626953125 4.1480712890625 1.130126953125 Q 4.124267578125 1.083984375 4.1099853515625 1.0162353515625 Q 4.095703125 0.948486328125 4.095703125 0.854736328125 L 4.095703125 0.41162109375 Q 4.095703125 0.317138671875 4.1103515625 0.2501220703125 Q 4.125 0.18310546875 4.149169921875 0.1373291015625 Q 4.17333984375 0.091552734375 4.204833984375 0.064453125 Q 4.236328125 0.037353515625 4.27001953125 0.0230712890625 Q 4.3037109375 0.0087890625 4.3370361328125 0.00439453125 Q 4.370361328125 0 4.39892578125 0 Q 4.4736328125 0 4.5238037109375 0.0208740234375 Q 4.573974609375 0.041748046875 4.6043701171875 0.0780029296875 Q 4.634765625 0.1142578125 4.6475830078125 0.16259765625 Q 4.660400390625 0.2109375 4.660400390625 0.26513671875 Q 4.660400390625 0.305419921875 4.6563720703125 0.3394775390625 Q 4.65234375 0.37353515625 4.644287109375 0.41455078125 L 4.490478515625 0.41455078125 L 4.490478515625 0.350830078125 Q 4.490478515625 0.24755859375 4.4677734375 0.1962890625 Q 4.445068359375 0.14501953125 4.401123046875 0.14501953125 Q 4.374755859375 0.14501953125 4.35498046875 0.1552734375 Q 4.335205078125 0.16552734375 4.322021484375 0.1900634765625 Q 4.308837890625 0.214599609375 4.3018798828125 0.2548828125 Q 4.294921875 0.295166015625 4.294921875 0.355224609375 L 4.294921875 0.926513671875 Q 4.294921875 0.985107421875 4.3004150390625 1.02392578125 Q 4.305908203125 1.062744140625 4.318359375 1.086181640625 Q 4.330810546875 1.109619140625 4.3509521484375 1.1195068359375 Q 4.37109375 1.12939453125 4.399658203125 1.12939453125 Q 4.41796875 1.12939453125 4.434814453125 1.1209716796875 Q 4.45166015625 1.112548828125 4.4644775390625 1.0946044921875 Q 4.477294921875 1.07666015625 4.4849853515625 1.0491943359375 Q 4.49267578125 1.021728515625 4.49267578125 0.984375 L 4.49267578125 0.862060546875 L 4.666259765625 0.862060546875 L 4.666259765625 0.977783203125 Q 4.666259765625 1.128662109375 4.597412109375 1.200439453125 Q 4.528564453125 1.272216796875 4.399658203125 1.27294921875 M 4.822998046875 0.010986328125 L 5.0126953125 0.010986328125 L 5.0126953125 0.53466796875 L 5.237548828125 0.53466796875 L 5.237548828125 0.010986328125 L 5.42724609375 0.010986328125 L 5.42724609375 1.261962890625 L 5.237548828125 1.261962890625 L 5.237548828125 0.68408203125 L 5.0126953125 0.68408203125 L 5.0126953125 1.261962890625 L 4.822998046875 1.261962890625 L 4.822998046875 0.010986328125 M 5.64990234375 0.010986328125 L 6.113525390625 0.010986328125 L 6.113525390625 0.160400390625 L 5.839599609375 0.160400390625 L 5.839599609375 0.53466796875 L 6.05126953125 0.53466796875 L 6.05126953125 0.68408203125 L 5.839599609375 0.68408203125 L 5.839599609375 1.112548828125 L 6.120849609375 1.112548828125 L 6.120849609375 1.261962890625 L 5.64990234375 1.261962890625 L 5.64990234375 0.010986328125" fill="#404040" fill-rule="nonzero"></path></g><g></g><g clip-path="url(#SvgjsClipPath1002)"><g clip-path="url(#SvgjsClipPath1000b58944e7-ef08-4b14-97e9-2bb98765d279)"><path d=" M 1.42569431121072 -1.8289332089308463 L 1.285928393093709 -1.6291179018201638 L 1.1234223442017688 -1.4387737094674387 L 0.8965962372655641 -1.217289878576072 L 0.5049081219427192 -0.8994244539082206 L 0.2182611304454396 -0.5583934074530192 L 0 -0.2512755705803875 L 1.0255672908081979 -0.2512755705803875 L 1.0255672908081979 -0.7647565484770649 L 2.9755768418059376 -0.7647565484770649 L 2.0706835297981696 -1.6626765355590494 L 1.9061130615496693 -1.637304664077666 L 1.9603395272437316 -1.7619814101801279 L 1.9166873011546437 -1.801260534197114 L 1.8148925161645844 -1.892882932205041 L 1.6934463499712429 -2.002186845618006 Z" fill="#4e888f" transform="matrix(1,0,0,1,0,0)" fill-rule="nonzero"></path></g><g clip-path="url(#SvgjsClipPath1000b58944e7-ef08-4b14-97e9-2bb98765d279)"><path d=" M 1.6202564726428892 -1.7928491170283822 L 1.679762178676245 -1.9182901710605627 L 1.470263011301395 -1.7827318862886008 L 1.3573266653564677 -1.6212738060013263 L 1.4936886553741133 -1.6435963252270278 L 1.603512613357815 -1.6056724688792334 L 1.6048363631742348 -1.6675971701128334 L 1.4552683928451615 -1.7017940403703498 L 1.6060576799691462 -1.7242977872494896 L 1.6066486397086195 -1.751891667351292 L 1.5394053008197608 -1.7776102352131664 Z" fill="#bab9b4" transform="matrix(1,0,0,1,0,0)" fill-rule="nonzero"></path></g><g clip-path="url(#SvgjsClipPath1000b58944e7-ef08-4b14-97e9-2bb98765d279)"><path d=" M 0.5357953627776127 -1.435181659738367 L 0.4094954472573979 -1.6583122984370657 L 0.2831955317371831 -1.435181659738367 L 0.4094954472573979 -1.482434800506645 Z" fill="#4e888f" transform="matrix(1,0,0,1,0,0)" fill-rule="nonzero"></path></g><g clip-path="url(#SvgjsClipPath1000b58944e7-ef08-4b14-97e9-2bb98765d279)"><path d=" M 0.6004819775768875 -1.2409267981389733 L 0.4094995487055314 -1.500807253169713 L 0.21850924037098227 -1.2409267981389733 L 0.4094995487055314 -1.285957930286832 Z" fill="#4e888f" transform="matrix(1,0,0,1,0,0)" fill-rule="nonzero"></path></g><g clip-path="url(#SvgjsClipPath1000b58944e7-ef08-4b14-97e9-2bb98765d279)"><path d=" M 0.5692733157136525 -1.1359248091244005 L 0.4095014405496749 -1.34330440090034 L 0.24972956538569738 -1.1359248091244005 L 0.4095014405496749 -1.1740929288311772 Z" fill="#4e888f" transform="matrix(1,0,0,1,0,0)" fill-rule="nonzero"></path></g><g clip-path="url(#SvgjsClipPath1000b58944e7-ef08-4b14-97e9-2bb98765d279)"><path d=" M 0.707806444173784 -0.688348512298832 L 0.40949784715089965 -1.0597942866789212 L 0.11118925012801523 -0.688348512298832 L 0.40949784715089965 -0.7911203507248199 Z" fill="#4e888f" transform="matrix(1,0,0,1,0,0)" fill-rule="nonzero"></path></g><g clip-path="url(#SvgjsClipPath1000b58944e7-ef08-4b14-97e9-2bb98765d279)"><path d=" M 0.005525862874549923 -0.43133356946718027 L 0.4094980613152446 -0.539849536560848 L 0.8134623802927463 -0.43133356946718027 L 0.4094980613152446 -0.8865459170517991 Z" fill="#4e888f" transform="matrix(1,0,0,1,0,0)" fill-rule="nonzero"></path></g><g clip-path="url(#SvgjsClipPath1000b58944e7-ef08-4b14-97e9-2bb98765d279)"><path d=" M 0.6596785626713818 -0.900982267743077 L 0.40949772683119584 -1.233046485084671 L 0.1593090115278168 -0.900982267743077 L 0.40949772683119584 -0.9789022792584181 Z" fill="#4e888f" transform="matrix(1,0,0,1,0,0)" fill-rule="nonzero"></path></g><g clip-path="url(#SvgjsClipPath1000b58944e7-ef08-4b14-97e9-2bb98765d279)"><path d=" M 0.9355097106483735 -1.7382679390376914 L 0.8375285858437149 -1.9391863709953905 L 0.7395553405022494 -1.7382679390376914 L 0.8375285858437149 -1.7808170402797625 Z" fill="#4e888f" transform="matrix(1,0,0,1,0,0)" fill-rule="nonzero"></path></g><g clip-path="url(#SvgjsClipPath1000b58944e7-ef08-4b14-97e9-2bb98765d279)"><path d=" M 0.9495154914883408 -1.5978496442957246 L 0.8375325605897637 -1.799335397603318 L 0.7255496296911865 -1.6136006912184842 L 0.8375325605897637 -1.664257760086128 Z" fill="#4e888f" transform="matrix(1,0,0,1,0,0)" fill-rule="nonzero"></path></g><g clip-path="url(#SvgjsClipPath1000b58944e7-ef08-4b14-97e9-2bb98765d279)"><path d=" M 1.0051072131598902 -1.421140421225387 L 0.8375267899716731 -1.6979538426578324 L 0.6699463667834562 -1.421140421225387 L 0.8375267899716731 -1.4733497443420471 Z" fill="#4e888f" transform="matrix(1,0,0,1,0,0)" fill-rule="nonzero"></path></g><g clip-path="url(#SvgjsClipPath1000b58944e7-ef08-4b14-97e9-2bb98765d279)"><path d=" M 1.109010014311073 -1.0109187829185666 L 0.8375309894602725 -1.3632883769084603 L 0.566059844072665 -1.0109187829185666 L 0.8375309894602726 -1.118780754567217 Z" fill="#4e888f" transform="matrix(1,0,0,1,0,0)" fill-rule="nonzero"></path></g><g clip-path="url(#SvgjsClipPath1000b58944e7-ef08-4b14-97e9-2bb98765d279)"><path d=" M 1.0512021880762377 -1.2104568377968337 L 0.8375347846723032 -1.5255565708839502 L 0.6238752607315617 -1.2104568377968337 L 0.8375347846723032 -1.2769989044615173 Z" fill="#4e888f" transform="matrix(1,0,0,1,0,0)" fill-rule="nonzero"></path></g><g clip-path="url(#a98524a6a-4b5a-430c-b7b1-5a2b6c99f06eb58944e7-ef08-4b14-97e9-2bb98765d279)"><path d=" M 0.8038395720546057 -1.221235512161329 L 0.5660531318169711 -1.0109168806144093 L 0.4094881981725349 -1.1206541645029884 C 0.4094881981725349 -1.1206541645029884 0.43555346241489995 -0.7741705295182477 0.45679649518316373 -0.7739183866960726 C 0.47803952795142746 -0.7736662438738973 0.8757317942273201 -0.96649246713241 0.8757317942273201 -0.96649246713241 Z" fill="#4e888f" transform="matrix(1,0,0,1,0,0)" fill-rule="nonzero"></path></g><g clip-path="url(#SvgjsClipPath1000b58944e7-ef08-4b14-97e9-2bb98765d279)"><path d=" M 3.766751714192988 -1.3427848734797645 L 3.6684002546182595 -1.5444676133671822 L 3.5700566745067244 -1.3427848734797645 L 3.6684002546182595 -1.3854915639856953 Z" fill="#4e888f" transform="matrix(1,0,0,1,0,0)" fill-rule="nonzero"></path></g><g clip-path="url(#SvgjsClipPath1000b58944e7-ef08-4b14-97e9-2bb98765d279)"><path d=" M 3.7808106815424747 -1.201834713642609 L 3.6684022596314767 -1.4040768954167282 L 3.5560017171836718 -1.2176409168077191 L 3.6684022596314767 -1.2684949722551875 Z" fill="#4e888f" transform="matrix(1,0,0,1,0,0)" fill-rule="nonzero"></path></g><g clip-path="url(#SvgjsClipPath1000b58944e7-ef08-4b14-97e9-2bb98765d279)"><path d=" M 3.8366210588642677 -1.0244577043972014 L 3.668410278620613 -1.3023190944343126 L 3.5001916189137647 -1.0244577043972014 L 3.668410278620613 -1.0768640140936858 Z" fill="#4e888f" transform="matrix(1,0,0,1,0,0)" fill-rule="nonzero"></path></g><g clip-path="url(#SvgjsClipPath1000b58944e7-ef08-4b14-97e9-2bb98765d279)"><path d=" M 3.94090798480642 -0.6126818380899965 L 3.668404629740533 -0.9663830613595032 L 3.3959091541378386 -0.6126818380899965 L 3.668404629740533 -0.7209535418246817 Z" fill="#4e888f" transform="matrix(1,0,0,1,0,0)" fill-rule="nonzero"></path></g><g clip-path="url(#SvgjsClipPath1000b58944e7-ef08-4b14-97e9-2bb98765d279)"><path d=" M 3.8828755933091723 -0.8129763233258651 L 3.6684044846595545 -1.1292658553551211 L 3.453933376009936 -0.8129763233258651 L 3.6684044846595545 -0.8797705328127241 Z" fill="#4e888f" transform="matrix(1,0,0,1,0,0)" fill-rule="nonzero"></path></g><g clip-path="url(#SvgjsClipPath1000b58944e7-ef08-4b14-97e9-2bb98765d279)"><path d=" M 2.382874194185189 -2.1899159586475374 L 2.1781105841893176 -2.03242124834633 L 2.0511960705400507 -1.8850989250272547 L 1.8001327348222513 -1.6370928210283302 L 0.22743127882017464 -0.2500000000000002 L 1.025581502952695 -0.2500000000000002 L 1.025581502952695 -0.7647574509339394 L 2.975583174487242 -0.7647574509339394 L 2.9755910539504344 -0.3292989175741121 L 3.442149828532939 -0.32932255596369076 L 3.5081718506268866 -0.250275781211754 L 3.6671163821556014 -0.3124762636571079 L 3.768729939492222 -0.31395760273738715 L 3.9298964796413562 -0.24999999999999978 L 4.34932818486667 -0.24999999999999978 L 3.9472549370554826 -0.802255816269313 L 3.542022024503912 -1.127780079160737 L 3.3955743215992564 -1.338335094603446 L 3.1307061663673634 -1.45700768975286 L 2.712464260084189 -1.9814805188037392 Z" fill="#4e888f" transform="matrix(1,0,0,1,0,0)" fill-rule="nonzero"></path></g><g clip-path="url(#SvgjsClipPath1000b58944e7-ef08-4b14-97e9-2bb98765d279)"><path d=" M 2.4317880541060366 -2.017532571684734 L 2.389979622404105 -2.114418451105569 L 2.2252121675757803 -1.9876851651097405 L 2.100850600001038 -1.843333399414417 L 1.9441044387031632 -1.6885019476724357 L 2.2421687723670654 -1.7775398817530663 L 2.404399040047252 -1.7200040415179543 L 2.429967898108459 -1.799744209030873 L 2.1720809472655422 -1.8395039803026307 L 2.452172225386266 -1.8690125699603266 L 2.4585545905725765 -1.8889082145225913 L 2.2391351790377696 -1.9227347500100378 L 2.46253371948503 -1.9462785860306506 L 2.450422984557425 -1.9743452339240317 L 2.314037356150201 -2.0012063239488875 Z" fill="#bab9b4" transform="matrix(1,0,0,1,0,0)" fill-rule="nonzero"></path></g><g clip-path="url(#SvgjsClipPath1000b58944e7-ef08-4b14-97e9-2bb98765d279)"><path d=" M 2.6973719345823937 -1.2841378823169651 L 2.785220069720885 -1.3170110027580617 L 2.6349350682412505 -1.1124995355843657 L 2.7747561426006127 -1.1454750890469707 L 2.6385359829204407 -0.9925898647136542 L 2.7580753190210823 -1.021152918788193 L 2.6665711129610496 -0.9197284685682037 L 2.975587900463189 -0.5845597427285769 L 2.975587900463189 -0.2500056150180021 L 3.9298933261541102 -0.2500056150180021 L 3.7687189065417828 -0.4851209172332178 L 3.9335021202964935 -0.42165184121379484 L 3.751171342011025 -0.6905464021372991 L 3.8874151400807753 -0.6480918544535434 L 3.766165960467259 -0.8255846423385245 L 3.8475686947138956 -0.7933024816369012 L 3.734041389029495 -0.9723869210868632 L 3.817807962234024 -0.9494734421216886 L 3.7198347168925587 -1.071644518928784 L 3.6218535920879007 -0.9494734421216886 L 3.704146705675343 -0.9719850684640217 L 3.5920928596080293 -0.8090535285596605 L 3.6783020664023813 -0.8326131235066592 L 3.552254293704342 -0.6480918544535434 L 3.6884980917740924 -0.6905464021372991 L 3.506167313488624 -0.42165184121379484 L 3.6671053492051624 -0.48363957815293834 L 3.50816869713964 -0.2502735167665633 L 3.307305421424292 -0.4907626128793885 L 3.4753743713304734 -0.42398416231891556 L 3.245885005835043 -0.6965426736271538 L 3.3732250104967307 -0.656877455913712 L 3.221048937850782 -0.8588753743288486 L 3.3556144102604293 -0.8039318774842259 L 3.183298429693233 -1.0276061991432404 L 3.2936266733212856 -0.9688254037236381 L 3.2122948542433853 -1.1272656496080027 L 3.2879534598223428 -1.0889950968797175 L 3.16579026247844 -1.29476727816429 L 3.043634944597731 -1.0889950968797175 L 3.119301429639881 -1.127273529071196 L 3.037969610561981 -0.9688254037236383 L 3.1482978541900333 -1.0276061991432404 L 3.0222658404183798 -0.8640049048674765 L 2.8805064181135456 -1.021152918788193 L 3.0000457542141867 -0.9925898647136542 L 2.8638255945340148 -1.1454750890469707 L 3.00365454835657 -1.1124995355843657 L 2.8533695468769356 -1.3170110027580617 L 2.9412176820154268 -1.2841378823169651 L 2.8192987480305067 -1.4995230086969684 Z" fill="#bab9b4" transform="matrix(1,0,0,1,0,0)" fill-rule="nonzero"></path></g><g clip-path="url(#SvgjsClipPath1000b58944e7-ef08-4b14-97e9-2bb98765d279)"><path d=" M 2.295264193783284 -1.13802863105648 L 1.4927329881154694 -1.0849131696726277 L 2.1880640970428433 -1.0415446042584868 Z M 2.1394478091421805 -0.9977978246110832 L 1.3405726743959068 -0.9449108676598272 L 2.0327362391197044 -0.9017550477518967 Z M 1.984049036050305 -0.8579452323989494 L 1.1830779640946993 -0.8049243245734128 L 1.9409010956055675 -0.7576711838051349 L 1.9996424937092045 -0.8049322040366058 L 1.925142169219615 -0.8049322040366058 Z" fill="#4e888f" transform="matrix(1,0,0,1,0,0)" fill-rule="nonzero"></path></g><g clip-path="url(#SvgjsClipPath1000b58944e7-ef08-4b14-97e9-2bb98765d279)"><path d=" M 1.025566290488146 -0.8049215219398418 L 1.025566290488146 -0.25127892014856523 L 1.9251488443038478 -0.25127892014856523 L 1.9251488443038478 -0.7586533140706859 L 1.1830767597157392 -0.8049215219398418 Z" fill="#bab9b4" transform="matrix(1,0,0,1,0,0)" fill-rule="nonzero"></path></g><g clip-path="url(#SvgjsClipPath1000b58944e7-ef08-4b14-97e9-2bb98765d279)"><path d=" M 1.9251451836536864 -0.8049215219398418 L 1.9251451836536864 -0.25127892014856523 L 2.1254096201663684 -0.25127892014856523 L 2.1254096201663684 -0.5792694550193904 L 2.357546485294639 -0.5700504830836086 L 2.357546485294639 -0.25127892014856523 L 2.795699795066464 -0.25127892014856523 L 2.795699795066464 -0.8049215219398418 L 2.3604224893600754 -1.1966726729682304 Z" fill="#4e888f" transform="matrix(1,0,0,1,0,0)" fill-rule="nonzero"></path></g><g clip-path="url(#SvgjsClipPath1000b58944e7-ef08-4b14-97e9-2bb98765d279)"><path d=" M 2.125410120828711 -0.6428858658845418 L 2.125410120828711 -0.6345651527527589 L 2.357562744883368 -0.6220052884231548 L 2.357562744883368 -0.6428858658845418 L 2.6665795323855073 -0.9209993987438283 L 2.4344269083308503 -0.9209993987438283 Z" fill="#4e888f" transform="matrix(1,0,0,1,0,0)" fill-rule="nonzero"></path></g><g clip-path="url(#SvgjsClipPath1000b58944e7-ef08-4b14-97e9-2bb98765d279)"><path d=" M 2.35755741565421 -0.6428858658845418 L 2.35755741565421 -0.25127654519362674 L 2.9755909906584876 -0.25127654519362674 L 2.9755909906584876 -0.6428858658845418 L 2.666566323693156 -0.9209993987438283 Z" fill="#4e888f" transform="matrix(1,0,0,1,0,0)" fill-rule="nonzero"></path></g><g clip-path="url(#SvgjsClipPath1000b58944e7-ef08-4b14-97e9-2bb98765d279)"><path d=" M 2.2952582841711155 -1.13802863105648 L 2.3332766940772256 -1.1722491397035755 L 1.997974017363318 -1.1966754756018014 L 1.4608467704245194 -1.1966754756018014 L 1.0255773441813234 -0.8049164451102198 L 1.1831666080408465 -0.8049164451102198 L 1.1830720544825308 -0.8049243245734128 L 1.984074644290908 -0.8579452323989494 L 2.032753967897115 -0.9017550477518967 L 1.340574644246931 -0.9449108676598272 L 2.139457658456398 -0.9977978246110832 L 2.188058187430675 -1.0415446042584868 L 1.4927349579664937 -1.0849131696726277 Z" fill="#404040" transform="matrix(1,0,0,1,0,0)" fill-rule="nonzero"></path></g><g clip-path="url(#SvgjsClipPath1000b58944e7-ef08-4b14-97e9-2bb98765d279)"><path d=" M 2.6665473975101284 -0.9209803953221696 L 2.434410532381858 -0.9209803953221696 L 2.3723676392003634 -0.8651543985999333 L 2.641758606305025 -0.8986736350228539 Z M 2.5612226130096163 -0.8261904531106663 L 2.3388956795566007 -0.8350154518867996 L 2.26222062322575 -0.7660071132427144 L 2.531761300131078 -0.7996681800031085 Z M 2.450996802403073 -0.7269801320479035 L 2.2286777484132503 -0.7358130102872298 L 2.151947535840048 -0.6667495154007936 L 2.421464574355798 -0.7004105821611879 Z" fill="#404040" transform="matrix(1,0,0,1,0,0)" fill-rule="nonzero"></path></g><g clip-path="url(#SvgjsClipPath1000b58944e7-ef08-4b14-97e9-2bb98765d279)"><path d=" M 2.125410120828711 -0.25125586746064776 L 2.3575469859569815 -0.2512716263870338 L 2.3575469859569815 -0.6271141412288035 L 2.125410120828711 -0.6363252337013929 Z" fill="#bab9b4" transform="matrix(1,0,0,1,0,0)" fill-rule="nonzero"></path></g><g clip-path="url(#SvgjsClipPath1000b58944e7-ef08-4b14-97e9-2bb98765d279)"><path d=" M 1.665403715964198 -0.4130941287001151 L 1.795863988050304 -0.4130941287001151 L 1.795863988050304 -0.6428907932600718 L 1.665403715964198 -0.6428907932600718 Z M 1.4921579587402312 -0.4130941287001151 L 1.6226103513631445 -0.4130941287001151 L 1.6226103513631445 -0.6428907932600718 L 1.4921579587402312 -0.6428907932600718 Z M 1.1633952364764937 -0.25128147256915656 L 1.3568596962536374 -0.25128147256915656 L 1.3568596962536374 -0.6428907932600718 L 1.1633952364764937 -0.6428907932600718 Z" fill="#4e888f" transform="matrix(1,0,0,1,0,0)" fill-rule="nonzero"></path></g><g clip-path="url(#SvgjsClipPath1000b58944e7-ef08-4b14-97e9-2bb98765d279)"><path d=" M 2.731794505575205 -0.44460410200882694 L 2.601342112952292 -0.44460410200882694 L 2.601342112952292 -0.6428907932600718 L 2.731794505575205 -0.6428907932600718 Z" fill="#bab9b4" transform="matrix(1,0,0,1,0,0)" fill-rule="nonzero"></path></g><g clip-path="url(#SvgjsClipPath1000b58944e7-ef08-4b14-97e9-2bb98765d279)"><path d=" M 2.3604176679438913 -1.3453851028340202 L 2.3604176679438913 -1.3852867044432515 L 2.128280802815621 -1.3852867044432515 L 2.128280802815621 -1.3189495038215853 Z M 2.128280802815621 -1.293490958245079 L 2.128280802815621 -1.2126319069587579 L 2.3604176679438913 -1.2390753854343857 L 2.3604176679438913 -1.2765737507697594 Z" fill="#bab9b4" transform="matrix(1,0,0,1,0,0)" fill-rule="nonzero"></path></g></g></g><defs><clipPath id="SvgjsClipPath1002"><path d=" M 0 -2.1899159586475374 h 4.349328184866669 v 1.9399159586475376 h -4.349328184866669 Z"></path></clipPath><clipPath id="SvgjsClipPath1000b58944e7-ef08-4b14-97e9-2bb98765d279"><path d=" M 0 -2.1899159586475374 L 4.349328184866669 -2.1899159586475374 L 4.349328184866669 -0.24999999999999978 L 0 -0.24999999999999978 Z"></path></clipPath><clipPath id="a98524a6a-4b5a-430c-b7b1-5a2b6c99f06eb58944e7-ef08-4b14-97e9-2bb98765d279"><path d=" M 3.7549675694713417e-7 -0.24999712006870167 L 4.349322227682122 -0.24999712006870167 L 4.349322227682122 -2.189913078716239 L 3.7549675694713417e-7 -2.189913078716239 Z"></path></clipPath></defs></svg>